<?xml version="1.0" encoding="UTF-8"?>
<svg version="1.1" xmlns="http://www.w3.org/2000/svg" width="1254" height="1254" viewBox="0 0 1254 1254">
<path d="M0 0 C413.82 0 827.64 0 1254 0 C1254 413.82 1254 827.64 1254 1254 C840.18 1254 426.36 1254 0 1254 C0 840.18 0 426.36 0 0 Z " fill="#FCF2F1" transform="translate(0,0)"/>
<path d="M0 0 C2.46203152 0.49303266 4.92571654 0.92770728 7.40185547 1.34277344 C31.96685087 5.68642061 55.80905115 15.51616178 79.09960938 24.18383789 C80.3489904 24.64754539 80.3489904 24.64754539 81.62361145 25.12062073 C83.14623156 25.68647992 84.66793555 26.25481692 86.1882782 26.82676697 C94.6204821 29.96209892 103.13422505 32.68715705 111.68701172 35.53808594 C111.68701172 63.25808594 111.68701172 90.97808594 111.68701172 119.53808594 C111.02701172 119.53808594 110.36701172 119.53808594 109.68701172 119.53808594 C109.44466797 118.7040625 109.20232422 117.87003906 108.95263672 117.01074219 C108.61748047 115.88539063 108.28232422 114.76003906 107.93701172 113.60058594 C107.44974609 111.94736328 107.44974609 111.94736328 106.95263672 110.26074219 C100.09136896 90.07929721 87.49878464 71.55338184 73.68701172 55.53808594 C73.26162109 55.04421387 72.83623047 54.5503418 72.39794922 54.04150391 C66.06684325 46.75008764 59.43581599 40.35499654 51.68701172 34.53808594 C50.72537109 33.81105469 49.76373047 33.08402344 48.77294922 32.33496094 C14.93836195 7.83700661 -25.76179237 -0.5338433 -66.81054688 5.13574219 C-80.0604143 7.26606234 -92.29422626 11.67272059 -104.31298828 17.53808594 C-105.84052734 18.28058594 -105.84052734 18.28058594 -107.39892578 19.03808594 C-114.03959236 22.46072642 -119.63208171 26.71503438 -125.31298828 31.53808594 C-125.97814453 32.04597656 -126.64330078 32.55386719 -127.32861328 33.07714844 C-138.63238998 42.03745923 -146.15486368 55.29235835 -151.31298828 68.53808594 C-151.74611328 69.6015625 -152.17923828 70.66503906 -152.62548828 71.76074219 C-158.64351386 89.62675562 -157.75898678 112.28674639 -150.31298828 129.53808594 C-150.01392578 130.41078125 -149.71486328 131.28347656 -149.40673828 132.18261719 C-144.71126963 145.63861299 -135.88497982 157.19161802 -126.31298828 167.53808594 C-125.00007812 168.95734375 -125.00007812 168.95734375 -123.66064453 170.40527344 C-106.46312217 188.23412921 -84.75560368 201.43566008 -63.31298828 213.53808594 C-62.62237305 213.92883301 -61.93175781 214.31958008 -61.22021484 214.72216797 C-45.73036678 223.45975631 -30.05819364 231.88217201 -14.36376953 240.24511719 C-0.4800682 247.64415746 13.31310315 255.17545624 26.96972656 262.98828125 C29.67849406 264.53322789 32.39454147 266.06458511 35.11279297 267.59277344 C75.15089971 290.16282723 116.02201192 316.96035182 144.68701172 353.53808594 C145.80076172 354.94380859 145.80076172 354.94380859 146.93701172 356.37792969 C161.24114081 374.87892999 171.79513964 395.89730687 177.68701172 418.53808594 C177.89729004 419.31796875 178.10756836 420.09785156 178.32421875 420.90136719 C181.65861 433.80596294 182.0759921 446.66225075 182.12451172 459.91308594 C182.13390778 461.11803207 182.13390778 461.11803207 182.14349365 462.34732056 C182.21816314 477.49226593 180.01090249 491.42143667 175.49951172 505.91308594 C175.19907959 506.8849585 174.89864746 507.85683105 174.58911133 508.8581543 C166.83382968 533.21736026 154.11735569 554.86969884 136.68701172 573.53808594 C135.47326118 574.9292113 134.26459919 576.32479919 133.06201172 577.72558594 C111.19946939 602.68282604 82.29903621 618.03258541 51.68701172 629.53808594 C50.77975342 629.89016113 49.87249512 630.24223633 48.93774414 630.60498047 C42.03222762 633.22751794 35.07632794 635.04556572 27.87451172 636.66308594 C26.80136719 636.91445313 25.72822266 637.16582031 24.62255859 637.42480469 C21.31903065 638.17910694 18.00980109 638.87396901 14.68701172 639.53808594 C13.19862793 639.84153931 13.19862793 639.84153931 11.68017578 640.15112305 C0.4250061 642.10395947 -10.95278558 641.87473257 -22.34179688 641.85375977 C-25.90933138 641.85061123 -29.47602516 641.87408348 -33.04345703 641.89941406 C-50.64935398 641.94916507 -67.59040169 640.65547982 -84.56298828 635.72558594 C-85.4764502 635.46696777 -86.38991211 635.20834961 -87.33105469 634.94189453 C-111.91293107 627.83050888 -134.9988146 616.5093272 -154.31298828 599.53808594 C-155.15216797 598.82007813 -155.99134766 598.10207031 -156.85595703 597.36230469 C-176.32059552 580.37224039 -189.9322913 558.55104418 -199.43798828 534.66308594 C-199.74583252 533.89544922 -200.05367676 533.1278125 -200.37084961 532.33691406 C-202.43732864 526.91110702 -202.43732864 526.91110702 -201.31298828 523.53808594 C-200.937146 524.28360718 -200.937146 524.28360718 -200.55371094 525.04418945 C-190.66645422 544.53845184 -179.27283777 561.52674543 -164.31298828 577.53808594 C-163.46478516 578.46363281 -162.61658203 579.38917969 -161.74267578 580.34277344 C-149.12048839 593.76733279 -133.69359456 604.23402859 -117.31298828 612.53808594 C-116.50603516 612.9504248 -115.69908203 613.36276367 -114.86767578 613.78759766 C-81.30418278 630.77848224 -48.42196377 634.63513757 -11.31298828 635.53808594 C-12.69949333 627.41390866 -14.36254507 619.66721709 -17.18798828 611.91308594 C-17.42018066 611.25115234 -17.65237305 610.58921875 -17.89160156 609.90722656 C-20.51568935 603.01083444 -24.67239051 599.46078984 -31.17138672 596.42285156 C-34.68993183 594.96922554 -38.29625187 593.8857428 -41.93798828 592.78808594 C-73.68216204 582.60315649 -90.91533367 557.19000126 -107.09741211 529.80688477 C-110.83567143 523.5426145 -114.77649037 516.96256807 -120.03955078 511.86621094 C-121.31298828 510.53808594 -121.31298828 510.53808594 -121.31298828 508.53808594 C-105.84001557 507.77712007 -90.80411923 511.4325609 -76.31298828 516.53808594 C-74.63462891 517.09109375 -74.63462891 517.09109375 -72.92236328 517.65527344 C-59.82357335 522.24301387 -49.21386929 529.92212236 -39.31298828 539.53808594 C-38.67876953 540.11042969 -38.04455078 540.68277344 -37.39111328 541.27246094 C-21.70751388 555.84571701 -15.90742372 577.64691753 -13.90283203 598.23339844 C-13.26873616 601.78601505 -12.07046287 604.40416106 -10.31298828 607.53808594 C-10.07193359 606.45269531 -9.83087891 605.36730469 -9.58251953 604.24902344 C-8.19088275 598.70446882 -6.12366317 593.4622497 -4.00048828 588.16308594 C-3.62214844 587.16664063 -3.24380859 586.17019531 -2.85400391 585.14355469 C-2.47308594 584.19351563 -2.09216797 583.24347656 -1.69970703 582.26464844 C-1.36156982 581.40436035 -1.02343262 580.54407227 -0.67504883 579.65771484 C1.0674501 576.94605044 2.69518109 576.55410521 5.68701172 575.53808594 C6.83087058 573.66901107 6.83087058 573.66901107 7.43701172 571.35058594 C13.21376461 555.29121291 25.04032964 539.83542065 36.68701172 527.53808594 C20.63230218 539.70074468 9.15090606 558.50631104 0.68701172 576.53808594 C0.35701172 576.53808594 0.02701172 576.53808594 -0.31298828 576.53808594 C-1.35196448 551.60265713 5.62728838 531.42536564 22.33154297 512.54980469 C36.82855298 496.97802488 56.26758716 487.08050117 76.68701172 481.53808594 C77.34701172 481.53808594 78.00701172 481.53808594 78.68701172 481.53808594 C78.44466797 482.72660156 78.20232422 483.91511719 77.95263672 485.13964844 C77.79311523 485.92879639 77.63359375 486.71794434 77.46923828 487.53100586 C77.10892793 489.31288929 76.74622747 491.0942908 76.38134766 492.87524414 C75.42026187 497.62750836 74.53534685 502.37238534 73.81201172 507.16699219 C70.18917633 530.66290242 59.90625803 550.20898881 40.60888672 564.87792969 C33.33175417 569.95447286 25.61521655 573.53099086 17.34741211 576.71240234 C10.86172687 579.246975 5.34763441 581.62856518 1.79638672 587.85058594 C0.36599045 591.73074133 -1.0426528 595.60265484 -2.31298828 599.53808594 C-2.65587891 600.57191406 -2.99876953 601.60574219 -3.35205078 602.67089844 C-6.170369 612.75889731 -5.59996778 623.16120143 -5.31298828 633.53808594 C4.64469214 632.37200934 14.09111447 630.46879744 23.68701172 627.53808594 C24.79641113 627.20429932 24.79641113 627.20429932 25.92822266 626.86376953 C45.41191289 620.8790875 64.26820681 612.02954023 79.68701172 598.53808594 C80.19232422 598.1067334 80.69763672 597.67538086 81.21826172 597.23095703 C97.44124882 583.34509401 108.82603896 566.53963015 117.83642578 547.34130859 C118.56509114 545.79655476 119.32246709 544.26540019 120.08544922 542.73730469 C135.16928861 510.31185376 133.87710085 471.19679141 121.91357422 438.20605469 C113.8182301 417.02571648 100.47335308 399.57618821 84.68701172 383.53808594 C83.70440727 382.51805498 82.72259066 381.49726428 81.74169922 380.47558594 C76.63683762 375.23983045 71.35848276 370.41663391 65.62841797 365.87402344 C63.6303778 364.28726644 61.65948698 362.66583761 59.71435547 361.01464844 C28.31883317 334.57831012 -9.36843716 314.69760789 -44.77392578 294.30761719 C-124.10231681 248.60474546 -124.10231681 248.60474546 -152.31298828 221.53808594 C-152.93995605 220.94366699 -153.56692383 220.34924805 -154.21289062 219.73681641 C-177.09206375 197.95371787 -198.6140052 167.19178516 -200.48999023 134.44873047 C-201.01730442 106.24267358 -201.01730442 106.24267358 -196.31298828 92.53808594 C-195.87986328 91.02408203 -195.87986328 91.02408203 -195.43798828 89.47949219 C-190.13007315 71.63636676 -179.9927125 56.96238809 -167.31298828 43.53808594 C-166.63880859 42.79945313 -165.96462891 42.06082031 -165.27001953 41.29980469 C-143.4878718 18.29164489 -112.60617936 6.26566241 -82.31298828 -0.46191406 C-81.54212891 -0.64125488 -80.77126953 -0.8205957 -79.97705078 -1.00537109 C-54.58327734 -6.69298894 -25.32827706 -5.10786203 0 0 Z " fill="#A3656B" transform="translate(640.31298828125,187.4619140625)"/>
<path d="M0 0 C0 4.05675857 -1.84343964 6.87083365 -3.6875 10.375 C-9.60839174 21.96588717 -13.58948197 33.1790572 -16 46 C-16.20625 46.90105469 -16.4125 47.80210937 -16.625 48.73046875 C-18.4524015 57.11874926 -18.26544679 65.46599034 -18 74 C-17.97035156 75.06605469 -17.94070313 76.13210938 -17.91015625 77.23046875 C-16.2394651 107.42515506 1.54177185 135.67518518 23 156 C45.33788134 175.74995606 71.57597101 190.18873688 97.4921875 204.6171875 C99.14686035 205.53963257 99.14686035 205.53963257 100.83496094 206.48071289 C102.95865137 207.66311489 105.08417589 208.84223151 107.21191406 210.01733398 C129.78456522 222.56528974 154.34197945 237.76768322 162.375 263.875 C165.28860638 278.78039683 161.35069304 293.39205529 153.81640625 306.31640625 C150.29204563 311.52336484 146.38031638 316.48575308 142 321 C141.34 321 140.68 321 140 321 C139.34 322.32 138.68 323.64 138 325 C137.34 324.67 136.68 324.34 136 324 C136.43570313 323.44054687 136.87140625 322.88109375 137.3203125 322.3046875 C147.37171924 308.7722741 151.42515041 294.79925897 150 278 C146.61429198 261.43858489 133.6564616 248.36414618 120.09448242 239.26416016 C118.40546297 238.16099714 116.70599713 237.07669982 115 236 C113.35837891 234.95972656 113.35837891 234.95972656 111.68359375 233.8984375 C103.12759813 228.59410934 94.2653329 223.85413018 85.40478516 219.08349609 C37.96621589 193.52369866 -10.25579544 164.43090472 -27 110 C-29.03331271 102.91971466 -30.43386255 96.37566333 -30 89 C-30.66 89 -31.32 89 -32 89 C-29.75944605 55.24140968 -21.40746483 26.72137454 0 0 Z " fill="#A3656B" transform="translate(440,257)"/>
</svg>
